<?xml version="1.0" encoding="utf-8"?>
<!-- Generator: Adobe Illustrator 18.1.0, SVG Export Plug-In . SVG Version: 6.00 Build 0)  -->
<!DOCTYPE svg PUBLIC "-//W3C//DTD SVG 1.1//EN" "http://www.w3.org/Graphics/SVG/1.1/DTD/svg11.dtd" [
	<!ENTITY st0 "fill:none;stroke:#545B62;stroke-miterlimit:10;">
	<!ENTITY st1 "fill:#2F343A;stroke:#2F343A;stroke-miterlimit:10;">
	<!ENTITY st2 "fill:#EEE8DB;">
	<!ENTITY st3 "fill:#2F343A;">
	<!ENTITY st4 "fill:#545B62;">
]>
<svg version="1.1" id="Layer_1" xmlns="http://www.w3.org/2000/svg" xmlns:xlink="http://www.w3.org/1999/xlink" x="0px" y="0px"
	 viewBox="0 0 25 25" style="enable-background:new 0 0 25 25;" xml:space="preserve">
<path style="&st3;" d="M14.49,15.63c-0.42,0.7-0.27,1.64,0.3,2.52c-1.4-1.04-2.85-2.38-4.15-4.01c-1.21-1.51-2.12-3.11-2.78-4.63
	c0.6,0.52,1.27,0.76,1.9,0.6c1.39-0.36,2.07-2.51,1.5-4.71c-0.57-2.2-2.15-3.7-3.54-3.34C7.5,2.11,7.13,2.33,7.14,2.32
	c0,0-1.06,0.72-2.04,2.02C3.76,6.13,2.95,12.2,6.89,17.13c3.93,4.93,9.67,5.62,12.12,4.63c0,0,0.49-0.21,1.13-0.62
	c0.89-0.58,1.03-0.75,1.03-0.75s0.33-0.29,0.46-0.5c0.73-1.23-0.31-3.24-2.27-4.4C17.4,14.33,15.22,14.39,14.49,15.63z"/>
</svg>
