<?xml version="1.0" encoding="UTF-8" standalone="no"?>
<!-- Generator: Adobe Illustrator 18.1.0, SVG Export Plug-In . SVG Version: 6.00 Build 0)  -->

<svg
   version="1.1"
   id="Layer_1"
   x="0px"
   y="0px"
   viewBox="0 0 25 25"
   style="enable-background:new 0 0 25 25;"
   xml:space="preserve"
   sodipodi:docname="contact-linkedin.svg"
   inkscape:version="1.4 (e7c3feb1, 2024-10-09)"
   xmlns:inkscape="http://www.inkscape.org/namespaces/inkscape"
   xmlns:sodipodi="http://sodipodi.sourceforge.net/DTD/sodipodi-0.dtd"
   xmlns="http://www.w3.org/2000/svg"
   xmlns:svg="http://www.w3.org/2000/svg"><defs
   id="defs1" /><sodipodi:namedview
   id="namedview1"
   pagecolor="#ffffff"
   bordercolor="#000000"
   borderopacity="0.25"
   inkscape:showpageshadow="2"
   inkscape:pageopacity="0.0"
   inkscape:pagecheckerboard="0"
   inkscape:deskcolor="#d1d1d1"
   inkscape:zoom="14.133106"
   inkscape:cx="8.5968364"
   inkscape:cy="14.646462"
   inkscape:window-width="1616"
   inkscape:window-height="815"
   inkscape:window-x="0"
   inkscape:window-y="25"
   inkscape:window-maximized="0"
   inkscape:current-layer="Layer_1" />

<g
   id="g2"
   transform="matrix(1.0827658,0,0,1.0827658,-259.85357,-277.1209)"><g
     id="g1" /><g
     id="g3"><path
       d="m 259.56452,256.09088 h -15.93464 c -1.97165,0 -3.57319,1.60061 -3.57319,3.57371 v 15.93465 c 0,1.97263 1.60158,3.57373 3.57319,3.57373 h 15.93411 c 1.97311,0 3.57372,-1.60105 3.57372,-3.57373 v -15.93513 c 0,-1.97262 -1.60056,-3.57318 -3.57319,-3.57318 z m -13.71779,21.18897 -4.00048,0.0508 V 264.241 l 4.00048,-0.0497 v 13.08864 z m -1.95869,-14.97718 c -1.20964,0 -2.18999,-0.98034 -2.18999,-2.18999 0,-1.2076 0.98088,-2.18897 2.18999,-2.18897 1.20863,0 2.18848,0.98185 2.18848,2.18897 0,1.20965 -0.97985,2.18999 -2.18848,2.18999 z m 17.60685,14.97917 -3.87959,0.0582 v -6.85887 c 0,-1.51406 -0.37653,-2.48793 -2.184,-2.48793 -1.59066,0 -2.25615,0.28454 -2.25615,2.37747 v 6.91163 l -3.98503,0.0481 v -13.08961 l 3.81988,-0.0467 v 1.66375 l 0.002,0.47052 c 1.12957,-1.10968 2.29593,-1.94776 4.16311,-1.94776 2.19295,0 4.32028,0.92167 4.32028,3.92238 v 8.97872 z"
       fill="#000000"
       id="path1"
       style="fill:#2f343a;fill-opacity:1;stroke-width:0.0485725" /></g></g></svg>
