<?xml version="1.0" encoding="utf-8"?>
<!-- Generator: Adobe Illustrator 18.1.0, SVG Export Plug-In . SVG Version: 6.00 Build 0)  -->
<!DOCTYPE svg PUBLIC "-//W3C//DTD SVG 1.1//EN" "http://www.w3.org/Graphics/SVG/1.1/DTD/svg11.dtd" [
	<!ENTITY st0 "fill:none;stroke:#545B62;stroke-miterlimit:10;">
	<!ENTITY st1 "fill:#2F343A;stroke:#2F343A;stroke-miterlimit:10;">
	<!ENTITY st2 "fill:#EEE8DB;">
	<!ENTITY st3 "fill:#2F343A;">
	<!ENTITY st4 "fill:#545B62;">
]>
<svg version="1.1" id="Layer_1" xmlns="http://www.w3.org/2000/svg" xmlns:xlink="http://www.w3.org/1999/xlink" x="0px" y="0px"
	 viewBox="0 0 25 25" style="enable-background:new 0 0 25 25;" xml:space="preserve">
<path style="&st3;" d="M12.5,1C6.18,1,1.06,6.09,1.06,12.38c0,4.66,2.81,8.66,6.84,10.42c-0.03-0.79,0-1.75,0.2-2.61
	c0.22-0.92,1.47-6.2,1.47-6.2s-0.37-0.73-0.37-1.8c0-1.69,0.98-2.95,2.21-2.95c1.04,0,1.54,0.78,1.54,1.71
	c0,1.04-0.67,2.6-1.01,4.04c-0.29,1.21,0.61,2.19,1.8,2.19c2.17,0,3.63-2.77,3.63-6.05c0-2.49-1.69-4.36-4.76-4.36
	c-3.47,0-5.63,2.57-5.63,5.45c0,0.99,0.29,1.69,0.75,2.23c0.21,0.25,0.24,0.35,0.16,0.63C7.85,15.29,7.73,15.8,7.68,16
	c-0.08,0.29-0.31,0.39-0.57,0.29c-1.6-0.65-2.34-2.39-2.34-4.35c0-3.23,2.74-7.11,8.17-7.11c4.36,0,7.24,3.14,7.24,6.52
	c0,4.46-2.49,7.8-6.17,7.8c-1.24,0-2.4-0.66-2.79-1.42c0,0-0.66,2.62-0.81,3.13c-0.24,0.88-0.72,1.75-1.15,2.44
	c1.03,0.3,2.11,0.47,3.24,0.47c6.31,0,11.43-5.09,11.43-11.38C23.93,6.09,18.81,1,12.5,1z"/>
</svg>
