<?xml version="1.0" encoding="utf-8"?>
<!-- Generator: Adobe Illustrator 18.1.0, SVG Export Plug-In . SVG Version: 6.00 Build 0)  -->
<!DOCTYPE svg PUBLIC "-//W3C//DTD SVG 1.1//EN" "http://www.w3.org/Graphics/SVG/1.1/DTD/svg11.dtd" [
	<!ENTITY st0 "fill:none;stroke:#545B62;stroke-miterlimit:10;">
	<!ENTITY st1 "fill:#2F343A;stroke:#2F343A;stroke-miterlimit:10;">
	<!ENTITY st2 "fill:#EEE8DB;">
	<!ENTITY st3 "fill:#2F343A;">
	<!ENTITY st4 "fill:#545B62;">
]>
<svg version="1.1" id="Layer_1" xmlns="http://www.w3.org/2000/svg" xmlns:xlink="http://www.w3.org/1999/xlink" x="0px" y="0px"
	 viewBox="0 0 25 25" style="enable-background:new 0 0 25 25;" xml:space="preserve">
<g>
	<path style="&st3;" d="M12.51,17.9c-2.57,0-4.67-2.09-4.67-4.67c0-2.57,2.09-4.67,4.67-4.67c2.57,0,4.67,2.09,4.67,4.67
		C17.18,15.8,15.08,17.9,12.51,17.9z M12.51,9.76c-1.91,0-3.47,1.56-3.47,3.47c0,1.91,1.56,3.47,3.47,3.47
		c1.91,0,3.47-1.56,3.47-3.47C15.98,11.32,14.42,9.76,12.51,9.76z"/>
	<g>
		<path style="&st3;" d="M8.21,9c1.1-1,2.62-1.78,4.3-1.78S15.71,8,16.81,9H24V5.79C24,3.23,22.25,1,19.68,1H8v6H7V1H6v6H5V1.28
			C4,1.33,4,1.4,4,1.48V7H3V2.04C2,2.89,1,4.25,1,5.79V9H8.21z M21,6.18C21,6.63,20.63,7,20.18,7h-2.36C17.37,7,17,6.63,17,6.18
			V3.82C17,3.37,17.37,3,17.82,3h2.36C20.63,3,21,3.37,21,3.82V6.18z"/>
		<path style="&st3;" d="M17.48,10c0.7,1,1.11,2.06,1.11,3.37c0,3.36-2.72,6.02-6.08,6.02c-3.36,0-6.08-2.62-6.08-5.98
			c0-1.31,0.41-2.4,1.11-3.4H1v9.3C1,21.87,2.75,24,5.32,24h14.36c2.57,0,4.32-2.13,4.32-4.7V10H17.48z"/>
	</g>
</g>
</svg>
