<?xml version="1.0" encoding="utf-8"?>
<!-- Generator: Adobe Illustrator 18.1.0, SVG Export Plug-In . SVG Version: 6.00 Build 0)  -->
<!DOCTYPE svg PUBLIC "-//W3C//DTD SVG 1.1//EN" "http://www.w3.org/Graphics/SVG/1.1/DTD/svg11.dtd" [
	<!ENTITY st0 "fill:none;stroke:#545B62;stroke-miterlimit:10;">
	<!ENTITY st1 "fill:#2F343A;stroke:#2F343A;stroke-miterlimit:10;">
	<!ENTITY st2 "fill:#EEE8DB;">
	<!ENTITY st3 "fill:#2F343A;">
	<!ENTITY st4 "fill:#545B62;">
]>
<svg version="1.1" id="Layer_1" xmlns="http://www.w3.org/2000/svg" xmlns:xlink="http://www.w3.org/1999/xlink" x="0px" y="0px"
	 viewBox="0 0 25 25" style="enable-background:new 0 0 25 25;" xml:space="preserve">
<path style="&st3;" d="M12.5,16.39l-2.36-1.92L1.9,20.83C2.1,20.94,2.34,21,2.59,21h19.97c0.21,0,0.41-0.04,0.59-0.12l-8.21-6.41
	L12.5,16.39z"/>
<path style="&st3;" d="M23.14,6.11C22.96,6.04,22.77,6,22.56,6H2.59C2.42,6,2.26,6.03,2.11,6.08L12.5,14.8L23.14,6.11z"/>
<path style="&st3;" d="M23.92,20.08c0.05-0.13,0.08-0.26,0.08-0.4V7.32c0-0.14-0.03-0.27-0.07-0.39l-8.15,6.85L23.92,20.08z"/>
<path style="&st3;" d="M1.08,7.02C1.03,7.15,1,7.28,1,7.42v12.36c0,0.14,0.03,0.27,0.07,0.39l8.25-6.24L1.08,7.02z"/>
</svg>
