<?xml version="1.0" encoding="UTF-8"?>
<svg version="1.1" xmlns="http://www.w3.org/2000/svg" width="110px" height="25px" viewBox="0 0 110 25">
<g>
	<path style="fill:#30353B;" d="M22.225,0H2.775C1.242,0,0,1.242,0,2.775v19.45C0,23.758,1.242,25,2.775,25h19.45C23.758,25,25,23.758,25,22.225V2.775C25,1.242,23.758,0,22.225,0z M7.2,21.25H3.45V9.375h3.75v11.875H7.2z M5.313,7.813c-1.209,0-2.188-0.979-2.188-2.188c0-1.209,0.979-2.188,2.188-2.188s2.188,0.979,2.188,2.188C7.501,6.834,6.522,7.813,5.313,7.813z M21.25,21.25h-3.75v-6.563c0-1.563,0-3.563-2.188-3.563c-2.188,0-2.531,1.719-2.531,3.594v6.532h-3.75V9.375h3.594v1.781h0.047c0.531-0.969,1.781-1.969,3.656-1.969c3.906,0,4.625,2.563,4.625,5.906V21.25z"/>
</g>
<g>
	<path style="fill:#2F353C;" d="M38.862,8.437c-0.065-0.134-0.147-0.266-0.245-0.396c-0.098-0.129-0.198-0.237-0.301-0.324
		c-0.093-0.076-0.224-0.151-0.392-0.223s-0.387-0.108-0.658-0.108c-0.467,0-0.845,0.132-1.134,0.396
		c-0.29,0.264-0.434,0.617-0.434,1.06c0,0.189,0.026,0.342,0.077,0.46s0.142,0.238,0.273,0.36c0.14,0.141,0.294,0.257,0.462,0.346
		c0.168,0.09,0.341,0.172,0.518,0.248l0.896,0.392c0.271,0.121,0.53,0.25,0.777,0.385c0.248,0.135,0.469,0.301,0.665,0.497
		c0.243,0.243,0.416,0.502,0.518,0.777c0.103,0.275,0.154,0.581,0.154,0.917c0,0.43-0.075,0.822-0.224,1.177
		c-0.149,0.354-0.357,0.657-0.623,0.909c-0.266,0.253-0.579,0.446-0.938,0.582c-0.359,0.135-0.749,0.203-1.169,0.203
		c-0.308,0-0.642-0.047-1.001-0.141c-0.359-0.094-0.703-0.299-1.029-0.615c-0.233-0.225-0.42-0.486-0.56-0.785
		c-0.14-0.298-0.243-0.588-0.308-0.867l0.981-0.28c0.036,0.247,0.106,0.474,0.21,0.683s0.223,0.385,0.355,0.527
		c0.208,0.208,0.426,0.348,0.654,0.42c0.227,0.07,0.464,0.105,0.71,0.105c0.322,0,0.604-0.051,0.845-0.154
		c0.242-0.104,0.441-0.242,0.597-0.416s0.272-0.375,0.348-0.6c0.076-0.227,0.114-0.457,0.114-0.691c0-0.217-0.035-0.415-0.106-0.593
		c-0.07-0.179-0.19-0.348-0.359-0.508c-0.131-0.131-0.291-0.245-0.479-0.338c-0.188-0.094-0.404-0.198-0.648-0.311l-0.846-0.392
		c-0.188-0.084-0.39-0.182-0.606-0.294c-0.216-0.112-0.432-0.271-0.648-0.476c-0.207-0.196-0.367-0.411-0.479-0.644
		c-0.113-0.233-0.169-0.527-0.169-0.882c0-0.364,0.065-0.693,0.196-0.987c0.13-0.294,0.313-0.546,0.546-0.756
		s0.509-0.373,0.826-0.49c0.317-0.117,0.667-0.175,1.05-0.175c0.289,0,0.553,0.031,0.791,0.091c0.238,0.061,0.474,0.17,0.707,0.329
		c0.187,0.13,0.359,0.285,0.518,0.462s0.289,0.369,0.392,0.574L38.862,8.437z"/>
	<path style="fill:#2F353C;" d="M42.978,10.383h4.788V6.589h1.036v9.338h-1.036v-4.592h-4.788v4.592h-1.036V6.589h1.036V10.383z"/>
	<path style="fill:#2F353C;" d="M56.369,13.268h-3.977l-1.12,2.66h-1.147l4.298-9.787l4.186,9.787h-1.147L56.369,13.268z
		 M55.963,12.315l-1.568-3.738l-1.596,3.738H55.963z"/>
	<path style="fill:#2F353C;" d="M61.416,6.589c0.158,0,0.333,0.005,0.524,0.014c0.191,0.01,0.388,0.033,0.589,0.07
		c0.2,0.037,0.398,0.089,0.595,0.154c0.196,0.065,0.383,0.159,0.56,0.28c0.271,0.187,0.509,0.453,0.714,0.798
		c0.206,0.345,0.309,0.77,0.309,1.274c0,0.355-0.057,0.684-0.168,0.987c-0.112,0.304-0.271,0.57-0.477,0.798
		s-0.452,0.411-0.741,0.546c-0.29,0.135-0.612,0.217-0.967,0.245l2.969,4.172h-1.261l-2.842-4.088h-0.266v4.088h-1.036V6.589H61.416
		z M60.954,10.887h0.658c0.644,0,1.147-0.147,1.512-0.441S63.67,9.73,63.67,9.179c0-0.261-0.049-0.513-0.147-0.756
		c-0.098-0.243-0.296-0.448-0.595-0.616c-0.215-0.121-0.437-0.196-0.665-0.224c-0.229-0.028-0.455-0.042-0.679-0.042h-0.63V10.887z"/>
	<path style="fill:#2F353C;" d="M71.789,7.541h-3.808v2.8h3.695v0.952h-3.695v3.681h3.808v0.953h-4.844V6.589h4.844V7.541z"/>
	<path style="fill:#2F353C;" d="M79.251,7.541v8.387h-1.036V7.541h-2.268V6.589h5.571v0.952H79.251z"/>
	<path style="fill:#2F353C;" d="M83.955,10.383h4.788V6.589h1.036v9.338h-1.036v-4.592h-4.788v4.592h-1.036V6.589h1.036V10.383z"/>
	<path style="fill:#2F353C;" d="M93.224,6.589v9.338h-1.036V6.589H93.224z"/>
	<path style="fill:#2F353C;" d="M99.803,8.437c-0.065-0.134-0.147-0.266-0.245-0.396c-0.098-0.129-0.198-0.237-0.301-0.324
		c-0.094-0.076-0.224-0.151-0.392-0.223c-0.169-0.072-0.388-0.108-0.658-0.108c-0.467,0-0.845,0.132-1.134,0.396
		c-0.29,0.264-0.435,0.617-0.435,1.06c0,0.189,0.025,0.342,0.077,0.46c0.051,0.118,0.143,0.238,0.272,0.36
		c0.141,0.141,0.295,0.257,0.463,0.346c0.168,0.09,0.34,0.172,0.518,0.248l0.896,0.392c0.271,0.121,0.529,0.25,0.776,0.385
		s0.469,0.301,0.665,0.497c0.243,0.243,0.415,0.502,0.519,0.777c0.103,0.275,0.153,0.581,0.153,0.917
		c0,0.43-0.074,0.822-0.224,1.177s-0.357,0.657-0.623,0.909c-0.266,0.253-0.579,0.446-0.938,0.582
		c-0.359,0.135-0.749,0.203-1.169,0.203c-0.308,0-0.642-0.047-1.001-0.141s-0.702-0.299-1.028-0.615
		c-0.233-0.225-0.42-0.486-0.561-0.785c-0.14-0.298-0.242-0.588-0.308-0.867l0.981-0.28c0.036,0.247,0.106,0.474,0.211,0.683
		c0.104,0.209,0.223,0.385,0.355,0.527c0.208,0.208,0.426,0.348,0.653,0.42c0.228,0.07,0.464,0.105,0.71,0.105
		c0.322,0,0.604-0.051,0.846-0.154c0.242-0.104,0.44-0.242,0.598-0.416c0.155-0.174,0.271-0.375,0.348-0.6
		c0.075-0.227,0.113-0.457,0.113-0.691c0-0.217-0.035-0.415-0.105-0.593s-0.19-0.348-0.359-0.508
		c-0.132-0.131-0.291-0.245-0.479-0.338c-0.188-0.094-0.404-0.198-0.648-0.311l-0.846-0.392c-0.188-0.084-0.39-0.182-0.605-0.294
		c-0.217-0.112-0.433-0.271-0.648-0.476c-0.207-0.196-0.366-0.411-0.479-0.644c-0.112-0.233-0.169-0.527-0.169-0.882
		c0-0.364,0.065-0.693,0.196-0.987C95.93,7.562,96.111,7.31,96.345,7.1s0.509-0.373,0.826-0.49s0.667-0.175,1.05-0.175
		c0.289,0,0.553,0.031,0.791,0.091s0.474,0.17,0.707,0.329c0.187,0.13,0.359,0.285,0.518,0.462c0.159,0.177,0.29,0.369,0.393,0.574
		L99.803,8.437z"/>
</g>
</svg>
