<?xml version="1.0" encoding="UTF-8" standalone="no"?>
<!-- Generator: Adobe Illustrator 16.0.0, SVG Export Plug-In . SVG Version: 6.00 Build 0)  -->

<svg
   version="1.0"
   id="Layer_1"
   x="0px"
   y="0px"
   width="607.336px"
   height="843px"
   viewBox="0 0 607.336 843"
   style="enable-background:new 0 0 607.336 843;"
   xml:space="preserve"
   sodipodi:docname="text-mobile.svg"
   inkscape:version="1.4 (e7c3feb1, 2024-10-09)"
   xmlns:inkscape="http://www.inkscape.org/namespaces/inkscape"
   xmlns:sodipodi="http://sodipodi.sourceforge.net/DTD/sodipodi-0.dtd"
   xmlns:xlink="http://www.w3.org/1999/xlink"
   xmlns="http://www.w3.org/2000/svg"
   xmlns:svg="http://www.w3.org/2000/svg"><defs
   id="defs88"><linearGradient
     id="swatch32"
     inkscape:swatch="solid"><stop
       style="stop-color:#000000;stop-opacity:1;"
       offset="0"
       id="stop32" /></linearGradient><linearGradient
     id="swatch31"
     inkscape:swatch="solid"
     inkscape:label="grey"><stop
       style="stop-color:#f8f1e9;stop-opacity:1;"
       offset="0"
       id="stop31" /></linearGradient><linearGradient
     inkscape:collect="always"
     xlink:href="#swatch32"
     id="linearGradient255"
     gradientUnits="userSpaceOnUse"
     gradientTransform="matrix(1.6836672,0,0,1.6836672,77.64242,-64.103856)"
     x1="29.806347"
     y1="416.00238"
     x2="241.58307"
     y2="416.00238" /><linearGradient
     inkscape:collect="always"
     xlink:href="#swatch31"
     id="linearGradient257"
     gradientUnits="userSpaceOnUse"
     gradientTransform="matrix(0.60602712,0,0,0.60602712,-1.876669,175.13526)"
     x1="63.200371"
     y1="155.82332"
     x2="928.66852"
     y2="155.82332" /></defs><sodipodi:namedview
   id="namedview88"
   pagecolor="#ffffff"
   bordercolor="#000000"
   borderopacity="0.25"
   inkscape:showpageshadow="2"
   inkscape:pageopacity="0.0"
   inkscape:pagecheckerboard="0"
   inkscape:deskcolor="#d1d1d1"
   inkscape:zoom="0.65564166"
   inkscape:cx="421.72427"
   inkscape:cy="405.70942"
   inkscape:window-width="1776"
   inkscape:window-height="875"
   inkscape:window-x="0"
   inkscape:window-y="25"
   inkscape:window-maximized="0"
   inkscape:current-layer="Layer_1" />


<g
   id="g3"
   transform="matrix(2.2986377,0,0,2.2986377,-17.718122,-27.592237)">
	<g
   id="g2">
		<line
   style="fill:none;stroke:#f9f2e9;stroke-miterlimit:10"
   x1="194.36301"
   y1="43.831001"
   x2="272.74399"
   y2="43.831001"
   id="line1" />
		<line
   style="fill:none;stroke:#f9f2e9;stroke-miterlimit:10"
   x1="4.7270002"
   y1="43.831001"
   x2="83.110001"
   y2="43.831001"
   id="line2" />
	</g>
</g><rect
   x="211.07834"
   y="563.91559"
   style="fill:#343332;stroke-width:2.11488"
   width="150.92432"
   height="22.954929"
   id="rect43" /><g
   id="g15"
   transform="matrix(1.4110461,0,0,1.4110461,-207.02921,43.010324)"
   style="fill:#f8f1e9;fill-opacity:1">
			
			
		<path
   style="font-weight:500;font-size:7.05556px;font-family:Futura;-inkscape-font-specification:'Futura Medium';letter-spacing:-0.492125px;fill:#f8f1e9;fill-opacity:1;stroke-width:1.57446"
   d="m 405.11145,18.024513 h 3.37985 v 13.964315 h -3.37985 v -1.462381 q -2.07881,1.863831 -4.47167,1.863831 -3.021,0 -4.99507,-2.093218 -1.95913,-2.136234 -1.95913,-5.3334 0,-3.139826 1.95913,-5.232998 1.95916,-2.093229 4.90534,-2.093229 2.54239,0 4.5614,2.007198 z m -7.98616,6.939147 q 0,2.007188 1.12166,3.268828 1.15154,1.276042 2.9013,1.276042 1.86943,0 3.02094,-1.23298 1.1516,-1.276055 1.1516,-3.240181 0,-1.964184 -1.1516,-3.240227 -1.15151,-1.247315 -2.99102,-1.247315 -1.73483,0 -2.90129,1.261684 -1.15159,1.275997 -1.15159,3.154149 z"
   id="path11-1" /><path
   style="font-weight:500;font-size:7.05556px;font-family:Futura;-inkscape-font-specification:'Futura Medium';letter-spacing:-0.492125px;fill:#f8f1e9;fill-opacity:1;stroke-width:1.57446"
   d="M 392.24761,7.7735119 V 31.988828 h -3.36498 V 7.7735119 Z"
   id="path10-3" /><path
   style="font-weight:500;font-size:7.05556px;font-family:Futura;-inkscape-font-specification:'Futura Medium';letter-spacing:-0.492125px;fill:#f8f1e9;fill-opacity:1;stroke-width:1.57446"
   d="m 371.92103,24.906242 q 0,-3.025161 2.25826,-5.147025 2.25826,-2.121865 5.50353,-2.121865 3.26029,0 5.53347,2.136234 2.24333,2.136234 2.24333,5.247332 0,3.139828 -2.25829,5.261691 -2.27318,2.107588 -5.5783,2.107588 -3.27521,0 -5.48858,-2.150556 -2.21342,-2.12191 -2.21342,-5.333399 z m 3.43973,0.05733 q 0,2.093264 1.16651,3.311889 1.19643,1.232981 3.15555,1.232981 1.97413,0 3.1556,-1.218658 1.18147,-1.21867 1.18147,-3.254505 0,-2.035879 -1.18147,-3.254502 -1.19643,-1.233027 -3.1556,-1.233027 -1.92919,0 -3.12563,1.233027 -1.19643,1.232992 -1.19643,3.182795 z"
   id="path9-8" /><path
   style="font-weight:500;font-size:7.05556px;font-family:Futura;-inkscape-font-specification:'Futura Medium';letter-spacing:-0.492125px;fill:#f8f1e9;fill-opacity:1;stroke-width:1.57446"
   d="m 357.95051,18.024432 h 3.37992 v 1.290332 q 1.76472,-1.677412 3.97809,-1.677412 2.5424,0 3.96317,1.534044 1.22632,1.304688 1.22632,4.258142 v 8.55921 h -3.37989 v -7.799327 q 0,-2.064572 -0.5982,-2.853101 -0.58328,-0.802853 -2.12365,-0.802853 -1.67498,0 -2.37791,1.060887 -0.68793,1.046656 -0.68793,3.655952 v 6.738442 h -3.37992 z"
   id="path8-4" /><path
   style="font-weight:500;font-size:7.05556px;font-family:Futura;-inkscape-font-specification:'Futura Medium';letter-spacing:-0.492125px;fill:#f8f1e9;fill-opacity:1;stroke-width:1.57446"
   d="m 352.45968,18.024432 h 3.37989 v 13.964316 h -3.37989 v -1.462382 q -2.07882,1.863831 -4.47164,1.863831 -3.02099,0 -4.99507,-2.093218 -1.95916,-2.136233 -1.95916,-5.3334 0,-3.139826 1.95916,-5.233009 1.95912,-2.093218 4.90534,-2.093218 2.5424,0 4.56137,2.007188 z m -7.98614,6.939147 q 0,2.007188 1.12163,3.268828 1.15155,1.276043 2.90134,1.276043 1.8694,0 3.02094,-1.232993 1.15159,-1.276043 1.15159,-3.240181 0,-1.964172 -1.15159,-3.240214 -1.15154,-1.24727 -2.99102,-1.24727 -1.73482,0 -2.90133,1.261627 -1.15156,1.276008 -1.15156,3.15416 z"
   id="path7-8" /><path
   style="font-weight:500;font-size:7.05556px;font-family:Futura;-inkscape-font-specification:'Futura Medium';letter-spacing:-0.492125px;fill:#f8f1e9;fill-opacity:1;stroke-width:1.57446"
   d="m 332.61171,18.024432 h 3.36493 v 1.247351 q 0.92726,-0.931887 1.64511,-1.276043 0.7328,-0.358307 1.73478,-0.358307 1.33104,0 2.7817,0.831544 l -1.54038,2.953454 q -0.95714,-0.659495 -1.86943,-0.659495 -2.75178,0 -2.75178,3.98566 v 7.240232 h -3.36493 z"
   id="path6-0" /><path
   style="font-weight:500;font-size:7.05556px;font-family:Futura;-inkscape-font-specification:'Futura Medium';letter-spacing:-0.492125px;fill:#f8f1e9;fill-opacity:1;stroke:none;stroke-width:4.25038;stroke-opacity:1"
   d="m 321.46774,20.461762 h 9.54148 v 0.73119 q 0,2.494667 -0.61317,4.415788 -0.59821,1.7778 -2.01896,3.3262 -3.21539,3.46958 -8.18054,3.46958 -4.84552,0 -8.30019,-3.354904 -3.45467,-3.369168 -3.45467,-8.086053 0,-4.817238 3.51449,-8.172175 3.51449,-3.3691791 8.55443,-3.3691791 2.70691,0 5.05489,1.0609311 2.24329,1.060978 4.41181,3.440921 l -2.48258,2.279603 q -2.84151,-3.627306 -6.92431,-3.627306 -3.66404,0 -6.14662,2.422971 -2.48257,2.379943 -2.48257,5.964234 0,3.698922 2.76673,6.093269 2.58726,2.222218 5.60823,2.222218 2.57231,0 4.62119,-1.663123 2.04886,-1.677398 2.28815,-4.014339 h -5.75779 z"
   id="text1-19-2-4" /></g><text
   xml:space="preserve"
   style="font-style:normal;font-variant:normal;font-weight:500;font-stretch:normal;font-size:80.8033px;line-height:1.2;font-family:Futura;-inkscape-font-specification:'Futura Medium';text-align:start;letter-spacing:-1.57567px;writing-mode:lr-tb;direction:ltr;text-anchor:start;display:inline;fill:url(#linearGradient257);stroke-width:0.606026"
   x="33.356468"
   y="286.00217"
   id="text31"
   inkscape:label="bigger text"><tspan
     sodipodi:role="line"
     x="33.356468"
     y="286.00217"
     style="font-size:80.8033px;line-height:1.2;letter-spacing:-1.57567px;fill:url(#linearGradient257);stroke-width:0.606026"
     id="tspan507"
     dx="0 0 0 0 0 0 0 0">Digital Products</tspan><tspan
     sodipodi:role="line"
     x="33.356468"
     y="382.96613"
     style="font-size:80.8033px;line-height:1.2;letter-spacing:-1.57567px;fill:url(#linearGradient257);stroke-width:0.606026"
     id="tspan579"
     dx="0 0">  fueled by AI</tspan><tspan
     sodipodi:role="line"
     x="33.356468"
     y="479.93008"
     style="font-size:80.8033px;line-height:1.2;letter-spacing:-1.57567px;fill:url(#linearGradient257);stroke-width:0.606026"
     id="tspan512"> &amp; Analytics</tspan></text><text
   xml:space="preserve"
   style="font-style:normal;font-variant:normal;font-weight:500;font-stretch:normal;font-size:31.0183px;line-height:1.4;font-family:Futura;-inkscape-font-specification:'Futura Medium';text-align:start;letter-spacing:-1.21224px;writing-mode:lr-tb;direction:ltr;text-anchor:start;fill:url(#linearGradient255);stroke-width:1.68367"
   x="125.93227"
   y="651.10797"
   id="text29"
   inkscape:label="small text"><tspan
     sodipodi:role="line"
     x="125.93227"
     y="651.10797"
     style="font-style:normal;font-variant:normal;font-weight:500;font-stretch:normal;font-size:31.0183px;line-height:1.4;font-family:Futura;-inkscape-font-specification:'Futura Medium';letter-spacing:-1.21224px;fill:url(#linearGradient255);stroke-width:1.68367"
     dx="0 0 0 0 0 0 0 0 0 0 0 0 0 0 0 0 0 0 0 0 0 0 0 0 0 0 0 0 0 0 0 0 0 0 0 0 0 0 0 0 0 0 0 0 0 0 0 0 0 0 0 0 0 0 0 0 0 0 0 0 0 0 0 0 0 0 0 0 0 0 3.0838905e-08"
     id="tspan10">Design, Programming &amp; AI</tspan><tspan
     sodipodi:role="line"
     x="125.93227"
     y="694.53357"
     style="font-style:normal;font-variant:normal;font-weight:500;font-stretch:normal;font-size:31.0183px;line-height:1.4;font-family:Futura;-inkscape-font-specification:'Futura Medium';letter-spacing:-1.21224px;fill:url(#linearGradient255);stroke-width:1.68367"
     id="tspan14"><tspan
   dx="0 0 0 0 0 0 0 0 0 0 0 0 0 0 0 0 0 0 0 0 0 0 0 0 0 0 0 0 0 0 0 0 0 0 0 0 0 0 0 0 0 0 0 0 0 0 0 0 0 0 0 0 0 0 0 0 0 0 0 0 0 0 0 0 0 0 0 0 0 0 0 0 0 0 0 0 0 0 0 0 0 0 0 0 0 0 0 0 3.0838905e-08"
   id="tspan15"
   style="font-style:normal;font-variant:normal;font-weight:500;font-stretch:normal;font-size:31.0183px;line-height:1.4;font-family:Futura;-inkscape-font-specification:'Futura Medium';letter-spacing:-1.21224px;fill:url(#linearGradient255);stroke-width:1.68367">Integration with r</tspan>eal-time </tspan><tspan
     sodipodi:role="line"
     x="125.93227"
     y="737.95923"
     style="font-style:normal;font-variant:normal;font-weight:500;font-stretch:normal;font-size:31.0183px;line-height:1.4;font-family:Futura;-inkscape-font-specification:'Futura Medium';letter-spacing:-1.21224px;fill:url(#linearGradient255);stroke-width:1.68367"
     dx="0 0 0 0 0 0 0 0 0 0 0 0 0 0 0 0 0 0 0 0 0 0 0 0 0 0 0 0 0 0 0 0 0 0 0 0 0 0 0 0 0 0 0 0 0 0 0 0 0 0 0 0 0 0 0 0 0 0 0 0 0 0 0 0 0 0 0 0 0 0 0 0 0 0 0 0 0 0 0 0 0 0 0 0 0 0 0 0 0 0 0 0 0 0 0 0 0 0 0 0 0 0 0 0 0 0 0 0 0 0 0 0 0 0 0 0 0 0 0 0 3.0838905e-08"
     id="tspan16">     Product Analytics</tspan></text></svg>
