<svg xmlns:inkscape="http://www.inkscape.org/namespaces/inkscape" xmlns:sodipodi="http://sodipodi.sourceforge.net/DTD/sodipodi-0.dtd" xmlns="http://www.w3.org/2000/svg" xmlns:svg="http://www.w3.org/2000/svg" height="30px" viewBox="0 0 120 30" version="1.1" id="svg1" inkscape:version="1.4 (e7c3feb1, 2024-10-09)" sodipodi:docname="granola_logo_bw.svg" inkscape:export-filename="granola_logo.svg.pdf" inkscape:export-xdpi="300" inkscape:export-ydpi="300">
    <sodipodi:namedview id="namedview1" pagecolor="#ffffff" bordercolor="#000000" borderopacity="0.25" inkscape:showpageshadow="2" inkscape:pageopacity="0.0" inkscape:pagecheckerboard="0" inkscape:deskcolor="#d1d1d1" inkscape:document-units="mm" showguides="false" inkscape:zoom="1.7973348" inkscape:cx="320.19633" inkscape:cy="140.48579" inkscape:window-width="1792" inkscape:window-height="976" inkscape:window-x="0" inkscape:window-y="25" inkscape:window-maximized="0" inkscape:current-layer="g1">
        <sodipodi:guide position="104.45935,-56.70247" orientation="0,793.70079" id="guide1" inkscape:locked="false"/>
        <sodipodi:guide position="180.99392,-123.92878" orientation="1122.5197,0" id="guide2" inkscape:locked="false"/>
        <sodipodi:guide position="117.90461,-163.74744" orientation="0,-793.70079" id="guide3" inkscape:locked="false"/>
        <sodipodi:guide position="31.648371,-107.76997" orientation="-1122.5197,0" id="guide4" inkscape:locked="false"/>
    </sodipodi:namedview>
    <defs id="defs1"/>
    <g inkscape:label="Layer 1" inkscape:groupmode="layer" id="layer1">
        <g id="g1" transform="matrix(1.715612,0,0,1.715612,-24.992748,-65.511294)">
            <g id="g2" transform="translate(0.08580536,-17.650512)" style="fill:#2f343a;fill-opacity:1">
                <path style="font-weight:500;font-size:7.05556px;font-family:Futura;-inkscape-font-specification:'Futura Medium';letter-spacing:-0.492125px;fill:#2f343a;fill-opacity:1;stroke-width:1.09322" d="m 81.916552,63.200981 h 2.346786 v 9.696084 h -2.346786 v -1.015401 q -1.443419,1.294146 -3.104896,1.294146 -2.097619,0 -3.468311,-1.45342 -1.360316,-1.483288 -1.360316,-3.703231 0,-2.18013 1.360316,-3.633518 1.36034,-1.453428 3.40601,-1.453428 1.765302,0 3.167197,1.393693 z m -5.545176,4.818178 q 0,1.393685 0.778827,2.269701 0.799572,0.886017 2.014507,0.886017 1.298038,0 2.097587,-0.856117 0.799604,-0.886025 0.799604,-2.249811 0,-1.363825 -0.799604,-2.249842 -0.799549,-0.86607 -2.076809,-0.86607 -1.204575,0 -2.014508,0.876047 -0.799604,0.885985 -0.799604,2.190075 z" id="path11-1"/>
                <path style="font-weight:500;font-size:7.05556px;font-family:Futura;-inkscape-font-specification:'Futura Medium';letter-spacing:-0.492125px;fill:#2f343a;fill-opacity:1;stroke-width:1.09322" d="M 72.984577,56.083227 V 72.897065 H 70.648114 V 56.083227 Z" id="path10-3"/>
                <path style="font-weight:500;font-size:7.05556px;font-family:Futura;-inkscape-font-specification:'Futura Medium';letter-spacing:-0.492125px;fill:#2f343a;fill-opacity:1;stroke-width:1.09322" d="m 58.870872,67.979291 q 0,-2.100513 1.568016,-3.573823 1.568017,-1.473311 3.821368,-1.473311 2.263768,0 3.842142,1.483288 1.557649,1.483288 1.557649,3.643471 0,2.18013 -1.568034,3.65344 -1.578374,1.463398 -3.873281,1.463398 -2.274128,0 -3.810979,-1.493233 -1.536881,-1.473342 -1.536881,-3.70323 z m 2.388369,0.03981 q 0,1.453452 0.809964,2.299601 0.830741,0.856117 2.191051,0.856117 1.370727,0 2.191082,-0.846172 0.820349,-0.84618 0.820349,-2.259756 0,-1.413607 -0.820349,-2.259755 -0.830743,-0.856149 -2.191082,-0.856149 -1.339533,0 -2.170274,0.856149 -0.830741,0.856125 -0.830741,2.209965 z" id="path9-8"/>
                <path style="font-weight:500;font-size:7.05556px;font-family:Futura;-inkscape-font-specification:'Futura Medium';letter-spacing:-0.492125px;fill:#2f343a;fill-opacity:1;stroke-width:1.09322" d="m 49.170482,63.200925 h 2.346845 v 0.895938 q 1.22532,-1.164706 2.762172,-1.164706 1.765306,0 2.751813,1.065159 0.851489,0.905907 0.851489,2.956629 v 5.943064 h -2.346817 v -5.415441 q 0,-1.43353 -0.415355,-1.981043 -0.404997,-0.557458 -1.474552,-0.557458 -1.16302,0 -1.651093,0.736624 -0.477657,0.726742 -0.477657,2.5385 v 4.678818 h -2.346845 z" id="path8-4"/>
                <path style="font-weight:500;font-size:7.05556px;font-family:Futura;-inkscape-font-specification:'Futura Medium';letter-spacing:-0.492125px;fill:#2f343a;fill-opacity:1;stroke-width:1.09322" d="m 45.357938,63.200925 h 2.346816 v 9.696084 h -2.346816 v -1.015401 q -1.443416,1.294146 -3.104869,1.294146 -2.097614,0 -3.468312,-1.45342 -1.360339,-1.483288 -1.360339,-3.703231 0,-2.18013 1.360339,-3.633526 1.36031,-1.45342 3.406012,-1.45342 1.765306,0 3.167169,1.393685 z m -5.54515,4.818178 q 0,1.393685 0.778799,2.269701 0.799576,0.886017 2.014538,0.886017 1.298009,0 2.097585,-0.856125 0.799605,-0.886017 0.799605,-2.249811 0,-1.363817 -0.799605,-2.249834 -0.799576,-0.866038 -2.076809,-0.866038 -1.204573,0 -2.014537,0.876007 -0.799576,0.885993 -0.799576,2.190083 z" id="path7-8"/>
                <path style="font-weight:500;font-size:7.05556px;font-family:Futura;-inkscape-font-specification:'Futura Medium';letter-spacing:-0.492125px;fill:#2f343a;fill-opacity:1;stroke-width:1.09322" d="m 31.576558,63.200925 h 2.336431 v 0.866095 q 0.643839,-0.647053 1.142272,-0.886017 0.508822,-0.24879 1.204544,-0.24879 0.924206,0 1.931461,0.577381 l -1.069555,2.050722 q -0.664587,-0.457918 -1.298038,-0.457918 -1.910684,0 -1.910684,2.767432 v 5.027235 h -2.336431 z" id="path6-0"/>
                <path style="font-weight:500;font-size:7.05556px;font-family:Futura;-inkscape-font-specification:'Futura Medium';letter-spacing:-0.492125px;fill:#2f343a;fill-opacity:1;stroke:none;stroke-width:2.95123;stroke-opacity:1" d="m 23.838776,64.893278 h 6.625098 v 0.5077 q 0,1.732165 -0.425753,3.06609 -0.415364,1.234411 -1.401863,2.309538 -2.232594,2.409093 -5.680136,2.409093 -3.36447,0 -5.76321,-2.329468 -2.398743,-2.339373 -2.398743,-5.614528 0,-3.344836 2.440278,-5.674328 2.440279,-2.33938 5.939742,-2.33938 1.879536,0 3.50985,0.736655 1.557626,0.736687 3.063327,2.389194 l -1.72377,1.582836 q -1.972994,-2.51861 -4.807872,-2.51861 -2.54412,0 -4.267891,1.682383 -1.723771,1.652507 -1.723771,4.14125 0,2.568336 1.921073,4.230844 1.796459,1.542991 3.894061,1.542991 1.786075,0 3.208708,-1.154785 1.422627,-1.164697 1.588776,-2.787345 h -3.997904 z" id="text1-19-2-4"/>
            </g>
        </g>
    </g>
</svg>